<?xml version="1.0" encoding="UTF-8" standalone="no"?>
<!DOCTYPE svg PUBLIC "-//W3C//DTD SVG 1.1//EN" "http://www.w3.org/Graphics/SVG/1.1/DTD/svg11.dtd">
<svg width="100%" height="100%" viewBox="0 0 1179 353" version="1.1" xmlns="http://www.w3.org/2000/svg" xmlns:xlink="http://www.w3.org/1999/xlink" xml:space="preserve" xmlns:serif="http://www.serif.com/" style="fill-rule:evenodd;clip-rule:evenodd;stroke-linejoin:round;stroke-miterlimit:2;">
    <g id="Artboard1" transform="matrix(0.995777,0,0,0.594276,-1026.646115,-235.333333)">
        <rect x="1031" y="396" width="1184" height="594" style="fill:none;"/>
        <g transform="matrix(1,0,0,1,-4.535344,1.353363)">
            <g transform="matrix(4.067221,0,0,6.815091,1125.966068,860.283335)">
                <path d="M0,-36.574C-8.923,-35.845 -16.087,-31.511 -15.127,-21.597C-13.662,-6.482 20.812,-6.011 22.223,-22.065C23.346,-34.846 9.965,-37.388 0,-36.574M-12.327,-45.043L-14.426,-37.344C-3.619,-51.26 20.126,-48.041 24.404,-30.07C30.184,-5.785 4.297,8.643 -13.034,-8.289L-14.893,-10.511C-14.089,-2.932 -12.149,5.08 -7.077,10.957C-6.193,11.981 -4.83,12.951 -4.037,13.985C-3.857,14.22 -3.587,14.279 -3.689,14.686L-18.164,14.686L-18.164,-45.043L-12.327,-45.043Z" style="fill:white;fill-rule:nonzero;"/>
            </g>
            <g transform="matrix(4.067221,0,0,6.815091,1788.960571,785.824378)">
                <path d="M0,-28.518C0.972,-29.464 1.669,-30.636 2.679,-31.557C9.266,-37.564 21.712,-35.864 24.283,-26.651L24.764,-26.795C27.675,-33.876 35.789,-36.766 42.847,-34.123C48.487,-32.01 50.276,-26.238 50.673,-20.712L50.663,9.046L37.589,9.046C38.938,7.173 40.644,5.655 41.982,3.754C45.862,-1.76 47.313,-8.655 47.638,-15.326C47.968,-22.12 47.937,-31.351 39.116,-32.028C28.344,-32.855 25.668,-24.102 25.205,-15.112C24.797,-7.188 25.53,1.088 25.215,9.046L12.14,9.046C18.031,3.539 20.901,-2.965 21.916,-10.932C22.79,-17.786 23.941,-30.478 14.721,-31.913C4.656,-33.479 0.608,-26.005 -0.01,-17.212L0,9.046L-9.806,9.046L-9.806,-34.118L0,-34.118L0,-28.518Z" style="fill:white;fill-rule:nonzero;"/>
            </g>
            <g transform="matrix(4.067221,0,0,6.815091,1613.098392,816.728771)">
                <path d="M0,-30.183C-8.721,-29.471 -16.031,-25.178 -15.125,-15.441C-13.678,0.111 20.888,0.303 22.223,-15.674C23.295,-28.506 10.072,-31.005 0,-30.183M1.401,-39.516C18.411,-40.907 28.228,-26.276 24.404,-10.462C19.393,10.259 -11.4,10.724 -17.113,-9.721C-20.988,-23.59 -13.812,-38.272 1.401,-39.516" style="fill:white;fill-rule:nonzero;"/>
            </g>
            <g transform="matrix(4.067221,0,0,6.815091,1358.470811,612.190855)">
                <path d="M0,28.143C0.95,27.235 5.035,21.945 4.935,20.91C1.146,14.346 -7.368,11.167 -14.622,13.414C-23.493,16.163 -24.193,28.089 -15.72,31.533C-10.305,33.734 -4.114,32.073 0,28.143M18.059,34.524L8.487,34.524C8.54,31.02 7.872,27.584 6.849,24.259C3.953,27.996 1.215,31.845 -3.259,33.869C-14.003,38.73 -26.914,32.067 -24.328,19.346C-21.885,7.327 -6.894,5.846 2.771,9.322C5.006,10.125 6.782,11.307 8.826,12.367C11.386,6.755 11.779,0.37 5.689,-2.928C-0.98,-6.539 -9.114,-4.243 -13.81,1.393L-24.666,1.393C-24.119,0.208 -23.094,-1.154 -22.218,-2.11C-16.772,-8.057 -8.461,-10.587 -0.53,-9.545C12.218,-7.871 16.754,3.586 11.121,14.579C16.251,19.893 18.478,27.188 18.059,34.524" style="fill:white;fill-rule:nonzero;"/>
            </g>
            <g transform="matrix(4.067221,0,0,6.815091,2079.318691,707.249787)">
                <path d="M0,-1.058C-13.78,0.491 -12.503,19.904 3.434,18.473C8.686,18.001 13.163,13.918 15.793,9.592C17.339,7.049 17.571,7.067 15.581,4.708C11.703,0.111 5.927,-1.724 0,-1.058M30.403,20.576L20.597,20.576C20.685,17.109 20.322,13.463 18.846,10.315C14.162,18.208 5.974,23.64 -3.501,20.743C-11.328,18.35 -14.472,9.572 -11.087,2.328C-5.837,-8.905 12.017,-8.01 20.751,-1.612C21.275,-1.561 21.724,-3.209 21.884,-3.687C27.275,-19.806 6.319,-22.87 -1.699,-12.555L-12.555,-12.555C-9.36,-17.647 -4.245,-21.587 1.684,-22.94C9.387,-24.698 19.451,-23.597 23.82,-16.126C26.983,-10.716 25.761,-4.819 23.392,0.618C24.446,2.065 25.69,3.329 26.622,4.872C29.451,9.555 30.453,15.151 30.403,20.576" style="fill:white;fill-rule:nonzero;"/>
            </g>
            <g transform="matrix(4.067221,0,0,6.815091,1505.037201,422.923513)">
                <path d="M0,62.296L-9.806,62.296L-9.806,0.35L-9.456,0L-0.35,0L0,0.35L0,62.296Z" style="fill:white;fill-rule:nonzero;"/>
            </g>
        </g>
    </g>
</svg>
